<svg width="24" height="25" viewBox="0 0 24 25" fill="none" xmlns="http://www.w3.org/2000/svg">
<path d="M22 11.3615V4.56154C22 3.06154 21.36 2.46154 19.77 2.46154H15.73C14.14 2.46154 13.5 3.06154 13.5 4.56154V11.3615C13.5 12.8615 14.14 13.4615 15.73 13.4615H19.77C21.36 13.4615 22 12.8615 22 11.3615Z" stroke="#1E1E6E" stroke-width="1.8" stroke-linecap="round" stroke-linejoin="round"/>
<path d="M22 20.3615V18.5615C22 17.0615 21.36 16.4615 19.77 16.4615H15.73C14.14 16.4615 13.5 17.0615 13.5 18.5615V20.3615C13.5 21.8615 14.14 22.4615 15.73 22.4615H19.77C21.36 22.4615 22 21.8615 22 20.3615Z" stroke="#1E1E6E" stroke-width="1.8" stroke-linecap="round" stroke-linejoin="round"/>
<path d="M10.5 13.5615V20.3615C10.5 21.8615 9.86 22.4615 8.27 22.4615H4.23C2.64 22.4615 2 21.8615 2 20.3615V13.5615C2 12.0615 2.64 11.4615 4.23 11.4615H8.27C9.86 11.4615 10.5 12.0615 10.5 13.5615Z" stroke="#1E1E6E" stroke-width="1.8" stroke-linecap="round" stroke-linejoin="round"/>
<path d="M10.5 4.56154V6.36154C10.5 7.86154 9.86 8.46154 8.27 8.46154H4.23C2.64 8.46154 2 7.86154 2 6.36154V4.56154C2 3.06154 2.64 2.46154 4.23 2.46154H8.27C9.86 2.46154 10.5 3.06154 10.5 4.56154Z" stroke="#1E1E6E" stroke-width="1.8" stroke-linecap="round" stroke-linejoin="round"/>
</svg>
